<?xml version="1.0" encoding="UTF-8"?>
<svg width="800px" height="608px" viewBox="0 0 800 608" version="1.1" xmlns="http://www.w3.org/2000/svg" xmlns:xlink="http://www.w3.org/1999/xlink">
    <!-- Generator: Sketch 64 (93537) - https://sketch.com -->
    <title>code</title>
    <desc>Created with Sketch.</desc>
    <g id="Page-1" stroke="none" stroke-width="1" fill="none" fill-rule="evenodd" opacity="0.1">
        <g id="code" fill-rule="nonzero">
            <path d="M687.490441,242.196757 C652.328632,103.932493 530.833478,4.12502941 388.224449,0.121838235 C312.831338,-1.99452941 233.496735,23.0100147 175.735294,110.510015 C72.4804779,266.925721 182.080544,375.013772 258.490809,426.375066 C295.406232,451.238831 328.669085,481.135371 357.315926,515.19875 C408.928574,576.445449 508.219537,652.553081 626.470588,533.304132 C712.179103,446.872338 710.911699,334.294419 687.490441,242.196757 Z" id="Path" fill="#F2F2F2"></path>
            <polygon id="Path" fill="#000000" points="529.117647 373.083824 601.470588 300.951471 529.117647 228.819118 551.176471 206.833824 645.588235 300.951471 551.176471 395.069118 529.117647 373.083824"></polygon>
            <path d="M322.5,306.09825 L351.911765,306.09825 L351.911765,276.686485 L322.5,276.686485 L322.5,306.09825 Z M470.147059,276.686485 L440.735294,276.686485 L440.735294,306.09825 L470.147059,306.09825 L470.147059,276.686485 Z M381.617647,306.09825 L411.029412,306.09825 L411.029412,276.686485 L381.617647,276.686485 L381.617647,306.09825 Z" id="Shape" fill="#000000"></path>
            <polygon id="Path" fill="#000000" points="282.647059 372.348529 210.220588 300.216176 282.573529 228.083824 260.514706 206.098529 166.176471 300.216176 260.588235 394.333824"></polygon>
            <path d="M800,553.157074 C800,565.339824 620.913897,607.568838 400,607.568838 C179.086103,607.568838 0,565.339824 0,553.157074 C0,540.974324 179.086103,563.451191 400,563.451191 C620.913897,563.451191 800,540.974316 800,553.157074 Z" id="Path" fill="#3F3D56"></path>
            <path d="M800,553.157074 C800,565.339824 620.913897,607.568838 400,607.568838 C179.086103,607.568838 0,565.339824 0,553.157074 C0,540.974324 179.086103,563.451191 400,563.451191 C620.913897,563.451191 800,540.974316 800,553.157074 Z" id="Path" fill="#000000"></path>
            <ellipse id="Oval" fill="#3F3D56" cx="400" cy="553.157066" rx="400" ry="22.0588235"></ellipse>
            <path d="M465.217647,447.024338 C465.217647,494.095022 494.747316,532.184022 531.240324,532.184022" id="Path" fill="#3F3D56"></path>
            <path d="M531.240324,532.184022 C531.240324,484.584456 564.193721,446.067485 604.917794,446.067485" id="Path" fill="#6C63FF"></path>
            <path d="M489.138904,451.291375 C489.138904,496.003522 507.969419,532.184022 531.240324,532.184022" id="Path" fill="#6C63FF"></path>
            <path d="M531.240324,532.184022 C531.240324,471.362353 569.329294,422.146228 616.4,422.146228" id="Path" fill="#3F3D56"></path>
            <path d="M517.350853,532.784419 C517.350853,532.784419 526.713956,532.496044 529.535757,530.486676 C532.357559,528.477309 543.938566,526.078015 544.638588,529.300603 C545.33861,532.523191 558.709588,545.328279 548.138691,545.413544 C537.567794,545.498809 523.576632,543.766963 520.760257,542.051397 C517.943882,540.335831 517.350853,532.784419 517.350853,532.784419 Z" id="Path" fill="#A8A8A8"></path>
            <path d="M548.327338,544.291772 C537.756441,544.377066 523.765287,542.645206 520.948912,540.929632 C518.804096,539.62314 517.949404,534.935125 517.663434,532.772279 C517.465382,532.780794 517.350853,532.784463 517.350853,532.784463 C517.350853,532.784463 517.94389,540.335875 520.760272,542.051441 C523.576654,543.767007 537.567801,545.498868 548.138699,545.413581 C551.190096,545.388971 552.244103,544.303331 552.186228,542.695397 C551.762316,543.666772 550.598529,544.27339 548.327338,544.291772 Z" id="Path" fill="#000000" opacity="0.2"></path>
            <path d="M636.421257,281.509235 C636.421257,281.509235 613.782669,264.320912 612.064309,270.621566 C610.345949,276.922221 628.67511,291.241868 628.67511,291.241868 L636.421257,281.509235 Z" id="Path" fill="#FFB9B9"></path>
            <path d="M636.421257,281.509235 C636.421257,281.509235 613.782669,264.320912 612.064309,270.621566 C610.345949,276.922221 628.67511,291.241868 628.67511,291.241868 L636.421257,281.509235 Z" id="Path" fill="#000000"></path>
            <path d="M711.156338,227.089809 C711.156338,227.089809 684.235382,275.203853 683.662596,282.077309 C683.089809,288.950765 683.089801,289.523529 680.798662,288.950743 C678.507522,288.377956 647.004272,284.941243 644.140338,286.086816 C641.276404,287.23239 635.548544,279.213382 635.548544,279.213382 C635.548544,279.213382 624.66561,290.096316 626.95675,292.387463 C629.24789,294.67861 636.121324,295.824162 637.266912,298.688096 C638.4125,301.552029 640.130846,304.415963 645.285919,303.843176 C650.440993,303.27039 685.380956,313.00775 689.963235,311.28939 C694.545515,309.571029 695.691096,306.707096 697.982243,306.707096 C700.27339,306.707096 704.855676,304.415956 704.855676,303.843169 C704.855676,303.270382 720.893691,272.912706 720.893691,272.912706 C720.893691,272.912706 739.795647,231.672096 711.156338,227.089809 Z" id="Path" fill="#D0CDE1"></path>
            <path d="M711.156338,227.089809 C711.156338,227.089809 684.235382,275.203853 683.662596,282.077309 C683.089809,288.950765 683.089801,289.523529 680.798662,288.950743 C678.507522,288.377956 647.004272,284.941243 644.140338,286.086816 C641.276404,287.23239 635.548544,279.213382 635.548544,279.213382 C635.548544,279.213382 624.66561,290.096316 626.95675,292.387463 C629.24789,294.67861 636.121324,295.824162 637.266912,298.688096 C638.4125,301.552029 640.130846,304.415963 645.285919,303.843176 C650.440993,303.27039 685.380956,313.00775 689.963235,311.28939 C694.545515,309.571029 695.691096,306.707096 697.982243,306.707096 C700.27339,306.707096 704.855676,304.415956 704.855676,303.843169 C704.855676,303.270382 720.893691,272.912706 720.893691,272.912706 C720.893691,272.912706 739.795647,231.672096 711.156338,227.089809 Z" id="Path" fill="#000000"></path>
            <path d="M672.098324,195.370566 C671.854656,198.412345 671.903811,201.470499 672.24511,204.502875 C673.115096,211.083603 676.144456,217.943316 673.28289,224.086081 C672.244221,226.315735 670.484471,228.258522 669.526088,230.514978 C667.497265,235.291713 669.336551,240.589801 669.060787,245.673765 C668.704551,252.241125 664.527581,258.569353 658.173603,262.168206 C669.029074,262.505449 679.352765,257.138228 686.183272,249.824382 C693.013779,242.510537 696.817662,233.438919 699.669353,224.362618 C701.135003,220.100216 702.074557,215.674756 702.467147,211.184537 C702.694546,208.605027 702.392153,206.00626 701.578544,203.547882 C700.575126,201.146176 699.254002,198.889957 697.650529,196.83961 C695.940199,194.434875 694.182882,191.982882 691.659456,190.193669 C688.551368,187.989941 682.558074,185.777279 678.434926,186.097978 C673.377456,186.491346 672.31114,191.860419 672.098324,195.370566 Z" id="Path" fill="#2F2E41"></path>
            <path d="M688.817647,213.342934 C688.817647,213.342934 695.118294,235.681603 689.963235,241.98225 C684.808176,248.282897 720.893691,239.118316 720.893691,239.118316 C720.893691,239.118316 703.137316,221.361941 711.72911,209.906221 L688.817647,213.342934 Z" id="Path" fill="#FFB9B9"></path>
            <path d="M688.817647,213.342934 C688.817647,213.342934 695.118294,235.681603 689.963235,241.98225 C684.808176,248.282897 720.893691,239.118316 720.893691,239.118316 C720.893691,239.118316 703.137316,221.361941 711.72911,209.906221 L688.817647,213.342934 Z" id="Path" fill="#000000"></path>
            <polygon id="Path" fill="#6C63FF" points="529.117647 359.113235 601.470588 286.980882 529.117647 214.848529 551.176471 192.863235 645.588235 286.980882 551.176471 381.098529 529.117647 359.113235"></polygon>
            <polygon id="Path" fill="#FFB9B9" points="668.197059 511.191912 668.197059 527.802941 676.788971 538.1125 684.235294 534.675735 681.944118 510.619118"></polygon>
            <path d="M671.634081,526.657029 C671.634081,526.657029 669.342904,518.638022 665.333434,524.365853 C661.323963,530.093684 657.314426,542.695015 655.023279,543.267801 C652.732132,543.840588 636.694118,561.596963 652.732103,561.596963 C668.770088,561.596963 673.925199,554.150743 673.925199,554.150743 C673.925199,554.150743 689.963213,547.850088 689.963213,546.704515 C689.963213,545.558941 687.672037,524.365853 686.526493,524.365853 C685.380949,524.365853 684.80811,528.37536 681.944206,528.37536 C679.080301,528.37536 671.634081,526.657029 671.634081,526.657029 Z" id="Path" fill="#2F2E41"></path>
            <polygon id="Path" fill="#FFB9B9" points="706.574265 514.055882 706.001471 529.521324 719.747794 535.248529 719.747794 512.910294"></polygon>
            <path d="M721.466485,529.520956 C721.466485,529.520956 714.020265,521.501949 710.010765,523.220309 C708.027231,524.018623 706.111669,524.976404 704.282897,526.084243 C704.282897,526.084243 701.991757,533.530463 700.846184,539.83111 C699.70061,546.131757 699.127801,548.995691 697.98225,551.286838 C696.836699,553.577985 695.691074,562.169779 707.146831,563.315353 C718.602588,564.460926 722.039272,558.160272 722.039272,558.160272 L724.903206,543.267831 C724.903206,543.267831 723.757632,529.520956 721.466485,529.520956 Z" id="Path" fill="#2F2E41"></path>
            <path d="M675.643588,349.093279 C675.643588,349.093279 659.032787,386.32439 661.323926,420.118779 C661.323926,420.118779 655.596066,433.292868 659.032787,453.913169 C662.469507,474.533471 667.051794,515.774125 667.051794,515.774125 C667.051794,515.774125 682.517022,517.492507 683.662596,514.628537 C683.662596,514.628537 684.808184,485.989228 685.953735,484.843654 C687.099287,483.698081 685.380941,457.349912 683.662596,452.194831 C681.94425,447.03975 699.70061,396.061743 699.70061,396.061743 L695.118316,332.482463 L675.643588,349.093279 Z" id="Path" fill="#2F2E41"></path>
            <path d="M675.643588,349.093279 C675.643588,349.093279 659.032787,386.32439 661.323926,420.118779 C661.323926,420.118779 655.596066,433.292868 659.032787,453.913169 C662.469507,474.533471 667.051794,515.774125 667.051794,515.774125 C667.051794,515.774125 682.517022,517.492507 683.662596,514.628537 C683.662596,514.628537 684.808184,485.989228 685.953735,484.843654 C687.099287,483.698081 685.380941,457.349912 683.662596,452.194831 C681.94425,447.03975 699.70061,396.061743 699.70061,396.061743 L695.118316,332.482463 L675.643588,349.093279 Z" id="Path" fill="#000000"></path>
            <path d="M671.061294,346.80214 L681.944235,370.286375 C681.944235,370.286375 687.099309,423.555493 689.963243,430.428934 C689.963243,430.428934 691.108831,449.903669 696.26389,456.204316 C701.418949,462.504963 705.428471,518.065235 705.428471,518.065235 C705.428471,518.065235 719.748132,522.074735 720.893699,518.065235 C722.039265,514.055735 725.475993,486.561985 725.475993,486.561985 C725.475993,486.561985 726.621581,463.07775 720.320912,447.612522 C714.020243,432.147294 727.76714,376.587022 727.76714,376.587022 C727.76714,376.587022 742.086794,349.666066 721.466485,327.900191 L671.061294,346.80214 Z" id="Path" fill="#2F2E41"></path>
            <circle id="Oval" fill="#FFB9B9" cx="701.418971" cy="196.732132" r="23.4842353"></circle>
            <path d="M723.184846,232.244882 C723.184846,232.244882 698.555037,232.244882 695.118316,235.108816 C693.353782,236.788107 690.582203,236.788107 688.817669,235.108816 C688.817669,235.108816 680.225875,235.68161 677.934728,242.555037 C675.643581,249.428463 668.770147,258.593051 668.770147,258.593051 C668.770147,258.593051 658.46,266.039272 664.18786,285.514007 C669.915721,304.988743 665.333449,336.491949 665.333449,336.491949 C665.333449,336.491949 660.751154,343.365382 665.333449,346.229316 C669.915743,349.09325 671.634096,350.238816 671.061309,352.529963 C670.488522,354.82111 723.184838,333.628015 723.184838,329.618515 C723.184838,325.609015 722.03925,322.172294 723.184838,320.453934 C724.330426,318.735574 725.476015,315.87164 724.330426,313.007713 C723.184838,310.143787 725.476015,309.570993 724.903221,306.707059 C724.330426,303.843125 727.767191,282.650037 730.058294,273.485456 C732.349397,264.320875 731.77664,232.817669 723.184846,232.244882 Z" id="Path" fill="#D0CDE1"></path>
            <path d="M636.421257,288.382669 C636.421257,288.382669 613.782669,271.194353 612.064309,277.495 C610.345949,283.795647 628.67511,298.115301 628.67511,298.115301 L636.421257,288.382669 Z" id="Path" fill="#FFB9B9"></path>
            <path d="M711.156338,235.108816 C711.156338,235.108816 684.235382,283.22286 683.662596,290.096316 C683.089809,296.969772 683.089801,297.542537 680.798662,296.969757 C678.507522,296.396978 647.004272,292.96025 644.140338,294.105824 C641.276404,295.251397 635.548544,287.23239 635.548544,287.23239 C635.548544,287.23239 624.66561,298.115301 626.95675,300.406478 C629.24789,302.697654 636.121331,303.843199 637.266904,306.707125 C638.412478,309.571051 640.130838,312.434993 645.285912,311.862206 C650.440985,311.289419 685.380956,321.026757 689.963235,319.308397 C694.545515,317.590037 695.691096,314.726103 697.982243,314.726103 C700.27339,314.726103 704.855676,312.434963 704.855676,311.862176 C704.855676,311.28939 720.893691,280.931713 720.893691,280.931713 C720.893691,280.931713 739.795647,239.691103 711.156338,235.108816 Z" id="Path" fill="#D0CDE1"></path>
            <path d="M689.789949,211.735978 C689.46439,209.410132 688.273235,207.300088 687.662191,205.032449 C686.695815,201.365196 687.268039,197.462392 689.246485,194.226904 C692.614971,188.786309 699.228419,186.376662 703.840676,181.941147 C703.936265,184.200493 705.503978,186.131272 707.236757,187.584287 C708.969537,189.037301 710.956978,190.216007 712.424213,191.936765 C713.833603,193.752309 714.861306,195.834107 715.445537,198.057 C716.349225,200.632737 716.75426,203.356975 716.639007,206.084206 C716.50554,208.838204 715.248172,211.416883 713.160544,213.218029 C711.442691,214.575728 709.042162,215.351118 708.212169,217.37736 C707.885872,218.389955 707.7916,219.462993 707.936338,220.516971 C708.329618,226.81875 708.697096,233.232765 707.213154,239.369949 C705.729213,245.507132 702.09361,251.436456 696.395787,254.157103 C701.07814,254.489287 705.859324,254.813147 710.402235,253.631184 C714.945147,252.449221 719.289779,249.472904 720.856037,245.047757 C721.628699,242.864757 721.701779,240.436816 722.799625,238.39789 C725.578301,233.237324 733.251096,233.002029 737.020213,228.513559 C738.528544,226.717353 739.258228,224.402721 739.799081,222.120412 C742.981625,208.690551 740.745566,194.430147 735.900743,181.506632 C734.230853,177.052221 732.151838,172.567191 728.570081,169.436463 C725.522184,166.772368 721.629971,165.304522 717.78086,164.050941 C712.163485,162.221471 706.37675,160.722581 700.472132,160.529353 C697.90704,160.378717 695.335399,160.678953 692.873993,161.416426 C690.444202,162.294246 688.182998,163.582366 686.18875,165.22475 C676.939243,172.421809 670.641765,183.924449 671.477441,195.614301 C671.983096,202.687632 674.98011,209.381632 678.830228,215.336853 C680.176794,217.419669 683.358412,221.860838 686.315574,220.551221 C688.997551,219.363456 690.141566,214.248007 689.789949,211.735978 Z" id="Path" fill="#2F2E41"></path>
            <path d="M322.5,292.127662 L351.911765,292.127662 L351.911765,262.715897 L322.5,262.715897 L322.5,292.127662 Z M470.147059,262.715897 L440.735294,262.715897 L440.735294,292.127662 L470.147059,292.127662 L470.147059,262.715897 Z M381.617647,292.127662 L411.029412,292.127662 L411.029412,262.715897 L381.617647,262.715897 L381.617647,292.127662 Z" id="Shape" fill="#6C63FF"></path>
            <ellipse id="Oval" fill="#2F2E41" cx="151.621963" cy="155.76375" rx="24.7477206" ry="19.3032206"></ellipse>
            <path d="M155.829081,288.659015 C155.829081,288.659015 178.102029,290.143875 182.061662,287.174147 C186.021294,284.204419 202.84975,291.133787 204.33461,295.093419 C205.819471,299.053051 180.576801,299.548007 176.617162,299.548007 C172.657522,299.548007 153.849257,305.487463 153.849257,305.487463 L155.829081,288.659015 Z" id="Path" fill="#A0616A"></path>
            <path d="M109.964882,519.219353 C109.964882,519.219353 99.5847353,545.395287 105.000485,548.554449 C110.416235,551.71361 167.281154,549.457066 167.281154,549.457066 C167.281154,549.457066 176.758647,543.590051 165.927228,539.528265 C165.927228,539.528265 156.901044,539.076956 151.034022,535.4665 C145.167,531.856044 138.397368,525.086353 138.397368,525.086353 C138.397368,525.086353 137.946059,515.157551 134.335603,517.414103 C132.151291,518.853221 130.676219,521.147785 130.273838,523.732426 L109.964882,519.219353 Z" id="Path" fill="#2F2E41"></path>
            <path d="M109.964882,519.219353 C109.964882,519.219353 99.5847353,545.395287 105.000485,548.554449 C110.416235,551.71361 167.281154,549.457066 167.281154,549.457066 C167.281154,549.457066 176.758647,543.590051 165.927228,539.528265 C165.927228,539.528265 156.901044,539.076956 151.034022,535.4665 C145.167,531.856044 138.397368,525.086353 138.397368,525.086353 C138.397368,525.086353 137.946059,515.157551 134.335603,517.414103 C132.151291,518.853221 130.676219,521.147785 130.273838,523.732426 L109.964882,519.219353 Z" id="Path" fill="#000000"></path>
            <polygon id="Path" fill="#6C63FF" points="282.647059 358.377941 210.220588 286.245588 282.573529 214.113235 260.514706 192.127941 166.176471 286.245588 260.588235 380.363235"></polygon>
            <path d="M93.9597794,527.227066 C93.9597794,527.227066 82.5758235,555.934419 88.5152794,559.399125 C94.4547353,562.863831 156.818956,560.389037 156.818956,560.389037 C156.818956,560.389037 167.213,553.954625 155.334096,549.500066 C155.334096,549.500066 145.435007,549.00511 139.000596,545.045478 C132.566184,541.085846 125.141912,533.661449 125.141912,533.661449 C125.141912,533.661449 124.646956,522.772478 120.687324,525.247221 C118.291761,526.825508 116.67403,529.341978 116.232735,532.176581 L93.9597794,527.227066 Z" id="Path" fill="#2F2E41"></path>
            <path d="M152.364397,345.083816 L145.435037,407.448074 C145.435037,407.448074 142.960265,437.145338 135.535949,443.579743 C135.535949,443.579743 135.535949,452.983875 133.061176,455.953603 L129.596471,495.055 C129.596471,495.055 134.546015,509.408676 134.051059,511.883449 C133.556103,514.358221 136.030882,522.277493 135.535926,523.267404 C135.040971,524.257316 111.77811,523.267404 111.77811,523.267404 L116.727654,443.579743 L132.071243,332.709956 L152.364397,345.083816 Z" id="Path" fill="#2F2E41"></path>
            <path d="M152.364397,345.083816 L145.435037,407.448074 C145.435037,407.448074 142.960265,437.145338 135.535949,443.579743 C135.535949,443.579743 135.535949,452.983875 133.061176,455.953603 L129.596471,495.055 C129.596471,495.055 134.546015,509.408676 134.051059,511.883449 C133.556103,514.358221 136.030882,522.277493 135.535926,523.267404 C135.040971,524.257316 111.77811,523.267404 111.77811,523.267404 L116.727654,443.579743 L132.071243,332.709956 L152.364397,345.083816 Z" id="Path" fill="#000000"></path>
            <path d="M139.990537,343.104 C139.990537,343.104 134.546037,394.084301 132.071265,404.973301 C130.515286,412.14414 129.522351,419.42566 129.101537,426.751294 C129.101537,426.751294 128.606588,442.589831 124.151993,447.044426 C121.517474,449.652912 120.083559,453.237702 120.19236,456.943515 C120.19236,456.943515 115.737772,506.933904 118.212544,512.87336 C120.687316,518.812816 123.162088,523.762331 120.687316,527.721993 C118.212544,531.681654 90.9900515,531.681625 90.9900515,528.711904 C90.9900515,525.742184 90.9900515,523.267404 89.5051838,521.782537 C88.0203162,520.297669 89.5051838,510.893566 89.5051838,510.893566 C89.5051838,510.893566 83.5657353,466.842625 89.0102353,453.973809 C94.4547353,441.104993 96.9295,405.963228 96.9295,405.963228 C96.9295,405.963228 92.9698676,365.871919 88.0203235,359.437493 C83.0707794,353.003066 89.0102353,330.235184 89.0102353,330.235184 L139.990537,343.104 Z" id="Path" fill="#2F2E41"></path>
            <path d="M126.055618,184.788243 C126.631015,186.099037 128.008287,186.828853 129.262125,187.519618 C136.528985,191.523074 142.61186,197.327463 148.604853,203.064963 C147.109444,197.997318 147.428063,192.566815 149.505831,187.708816 C150.221353,186.051838 151.159169,184.270765 150.647743,182.539875 C150.271625,181.267015 149.18775,180.348926 148.13786,179.536934 C145.692454,177.645748 143.13653,175.901957 140.483676,174.314831 C138.630426,173.206074 134.820221,170.254485 132.693544,170.575632 C132.581897,173.449074 132.523596,176.018103 131.265272,178.703676 C130.966757,179.340691 126.275581,185.289338 126.055618,184.788243 Z" id="Path" fill="#A0616A"></path>
            <circle id="Oval" fill="#A0616A" cx="151.374485" cy="170.85986" r="20.2931324"></circle>
            <path d="M152.364397,218.870449 C152.364397,218.870449 155.829103,201.547044 145.929993,195.607588 C136.030882,189.668132 124.646949,182.738772 124.646949,182.738772 C124.646949,182.738772 121.182243,182.243824 119.697404,189.66814 C119.697404,189.66814 91.4850074,195.112632 88.5152794,221.840199 C85.5455515,248.567765 90.4950956,287.669132 90.4950956,287.669132 C90.4950956,287.669132 86.0405074,321.820985 80.5960074,340.134301 C80.5960074,340.134301 76.1414191,344.093934 95.9395956,338.154485 C115.737772,332.215037 150.384559,354.982904 150.384559,354.982904 C150.384559,354.982904 153.849265,351.518199 153.849265,349.043449 C153.849265,346.568699 157.808904,332.215 157.808904,332.215 C157.808904,332.215 161.27361,271.335588 162.758449,264.406243 C164.243287,257.476897 156.818985,219.860346 152.364397,218.870449 Z" id="Path" fill="#575A89"></path>
            <path d="M146.591912,172.950449 C147.811031,172.274757 149.178173,171.910651 150.571875,171.890478 C151.967225,171.869607 153.329683,171.463638 154.50889,170.717375 C156.425801,169.245743 156.566412,166.401699 157.968735,164.433507 C159.999007,161.583993 164.04925,161.241015 167.545154,161.383588 C169.68339,161.470787 171.986066,161.598478 173.786647,160.441985 C175.635103,159.254743 176.472956,157.017772 177.096206,154.911147 C177.833272,152.419926 178.309993,149.37336 176.483574,147.525757 C175.215272,146.242743 173.213301,145.988993 171.804375,144.862213 C170.343515,143.693904 169.742375,141.792537 168.948309,140.098868 C168.044715,138.035299 166.615407,136.244987 164.803199,134.906816 C162.145346,133.060132 158.750654,132.646029 155.514412,132.68064 C152.278169,132.71525 149.028346,133.140772 145.816375,132.743632 C143.184757,132.41825 140.560904,131.542897 137.937816,131.930882 C134.595316,132.425287 131.830066,134.946978 130.183081,137.897257 C128.536096,140.847537 127.829404,144.215096 127.14411,147.523728 L125.280404,156.522397 C124.70236,159.313397 124.121941,162.178574 124.568154,164.993654 C125.493154,170.829353 130.654088,175.467971 131.009691,181.365809 C131.698255,178.057628 134.00315,175.316883 137.14425,174.071221 C137.531983,173.881617 137.972297,173.828203 138.394118,173.919603 C138.90686,174.083493 139.206544,174.595757 139.530147,175.025941 C140.377993,176.153103 143.041419,177.863228 144.551176,177.06361 C145.902022,176.348169 144.893529,174.102287 146.591912,172.950449 Z" id="Path" fill="#2F2E41"></path>
            <path d="M95.4446397,265.396184 C95.4446397,265.396184 91.9799338,287.174176 106.33361,285.19436 C106.33361,285.19436 113.757926,284.204449 114.747831,285.19436 C115.737735,286.184272 152.364368,279.74986 157.313912,274.30539 C157.313912,274.30539 163.253368,272.325574 166.223088,275.295301 C169.192809,278.265029 198.890081,281.234757 189.980904,272.325574 C181.071728,263.41639 167.213,261.436603 167.213,261.436603 L148.404735,262.426507 C148.404735,262.426507 138.505647,265.396235 132.566191,262.426507 C126.626735,259.456779 109.798287,260.446691 109.798287,260.446691 L95.4446397,265.396184 Z" id="Path" fill="#A0616A"></path>
            <path d="M115.737772,196.597493 C115.737772,196.597493 93.4648235,199.072265 93.4648235,231.244301 L93.4648235,272.325515 C93.4648235,272.325515 105.838684,266.881015 108.313456,267.375971 C110.788228,267.870926 120.687316,260.941566 120.687316,260.941566 C120.687316,260.941566 132.071265,234.214029 131.08136,226.789713 C130.091456,219.365397 130.586404,197.587397 115.737772,196.597493 Z" id="Path" fill="#575A89"></path>
            <ellipse id="Oval" fill="#2F2E41" cx="151.374485" cy="158.238522" rx="19.0557426" ry="9.89908824"></ellipse>
            <ellipse id="Oval" fill="#2F2E41" cx="133.556132" cy="159.97086" rx="6.68188235" ry="16.5809706"></ellipse>
        </g>
    </g>
</svg>