<?xml version="1.0" encoding="UTF-8"?>
<svg width="461px" height="367px" viewBox="0 0 461 367" version="1.1" xmlns="http://www.w3.org/2000/svg" xmlns:xlink="http://www.w3.org/1999/xlink">
    <!-- Generator: Sketch 64 (93537) - https://sketch.com -->
    <title>home</title>
    <desc>Created with Sketch.</desc>
    <g id="Page-1" stroke="none" stroke-width="1" fill="none" fill-rule="evenodd">
        <g id="home" transform="translate(0.000000, -1.000000)" fill-rule="nonzero">
            <path d="M230.149,74.939 L65.986,210.274 C65.986,210.465 65.938,210.746 65.842,211.129 C65.748,211.509 65.698,211.785 65.698,211.981 L65.698,349.022 C65.698,353.97 67.507,358.258 71.124,361.869 C74.74,365.482 79.022,367.3 83.971,367.3 L193.601,367.3 L193.601,257.664 L266.698,257.664 L266.698,367.304 L376.327,367.304 C381.275,367.304 385.563,365.49 389.174,361.869 C392.791,358.262 394.606,353.971 394.606,349.022 L394.606,211.981 C394.606,211.221 394.502,210.647 394.318,210.274 L230.149,74.939 Z" id="Path" fill="#F16529"></path>
            <path d="M457.122,179.438 L394.6,127.476 L394.6,10.989 C394.6,8.326 393.744,6.136 392.026,4.422 C390.322,2.71 388.132,1.854 385.463,1.854 L330.647,1.854 C327.981,1.854 325.792,2.71 324.077,4.422 C322.366,6.136 321.511,8.327 321.511,10.989 L321.511,66.662 L251.849,8.417 C245.765,3.468 238.531,0.994 230.155,0.994 C221.78,0.994 214.547,3.468 208.457,8.417 L3.172,179.438 C1.269,180.958 0.226,183.004 0.032,185.574 C-0.161,188.142 0.504,190.385 2.029,192.287 L19.73,213.415 C21.255,215.127 23.251,216.174 25.726,216.557 C28.011,216.749 30.296,216.081 32.581,214.559 L230.149,49.817 L427.719,214.558 C429.245,215.886 431.24,216.549 433.715,216.549 L434.573,216.549 C437.044,216.173 439.036,215.119 440.569,213.411 L458.272,192.286 C459.794,190.38 460.461,188.141 460.263,185.57 C460.068,183.007 459.021,180.961 457.122,179.438 Z" id="Path" fill="#E44D26"></path>
        </g>
    </g>
</svg>