<?xml version="1.0" encoding="UTF-8"?>
<svg width="462px" height="468px" viewBox="0 0 462 468" version="1.1" xmlns="http://www.w3.org/2000/svg" xmlns:xlink="http://www.w3.org/1999/xlink">
    <!-- Generator: Sketch 64 (93537) - https://sketch.com -->
    <title>skills-2</title>
    <desc>Created with Sketch.</desc>
    <g id="Page-1" stroke="none" stroke-width="1" fill="none" fill-rule="evenodd">
        <g id="skills-2" fill-rule="nonzero">
            <path d="M437.686,283.121 C437.665,274.209 437.598,259.493 437.505,257.945 C434.094345,195.429559 382.036255,146.699805 319.432,147.421 C318.42,147.432333 317.412,147.456 316.408,147.492 C279.878384,148.780447 246.599323,168.827277 228.383,200.517 C211.411244,229.453606 208.835458,264.629785 221.411,295.73 C222.982,299.62 224.48,303.539 225.811,307.517 L236.536,339.58 C239.771521,349.936883 241.679104,360.66263 242.213,371.5 C243.997,408.194 242.172,451.82 241.359,468 L338.706,468 L338.706,433.087 C338.702785,432.629025 338.755168,432.172352 338.862,431.727 C341.452686,421.158898 350.932996,413.731856 361.814,413.746 L361.914,413.746 C384.289,413.84 396.43,413.912 398,413.961 C403.677767,414.150249 409.191578,412.039843 413.292,408.108 C417.59805,403.909912 419.99689,398.131446 419.93,392.118 L419.93,352.3 C419.93,348.986292 422.616292,346.3 425.93,346.3 L461.39,346.3 L438.08,285.247 C437.821135,284.568004 437.687639,283.847666 437.686,283.121 Z" id="Path" fill="#3C9CD7"></path>
            <path d="M176.237,285.692 C119.995632,285.688384 72.8465308,243.195656 67.015831,187.257347 C61.1851311,131.319037 98.5575077,80.0162582 153.58916,68.414158 C208.620812,56.8120579 263.523691,88.6608191 280.772,142.192 C290.033883,138.914793 299.669363,136.809111 309.454,135.924 C305.618201,123.252835 299.958904,111.207292 292.654,100.166 C291.183843,97.9608213 291.334655,95.0523008 293.025,93.011 L314.8,66.722 L285.334,36.883 L259.1,58.61 C257.084404,60.279461 254.219236,60.4498333 252.02,59.031 C237.806397,49.7250319 222.026184,43.0677866 205.442,39.381 C202.892226,38.8277241 200.992277,36.6900798 200.742,34.093 L197.449,0 L155.024,0 L151.738,34.093 C151.487096,36.6915437 149.584738,38.8296243 147.033,39.381 C130.451178,42.9726709 114.682673,49.6191805 100.533,58.981 C98.3278213,60.451157 95.4193008,60.3003448 93.378,58.61 L67.112,36.861 L37.226,66.749 L58.975,93.012 C60.644461,95.0275962 60.8148333,97.8927637 59.396,100.092 C50.0892119,114.305282 43.431589,130.085587 39.745,146.67 C39.1917241,149.219774 37.0540798,151.119723 34.457,151.37 L0.364,154.66 L0.364,197.085 L34.457,200.372 C37.0540798,200.622277 39.1917241,202.522226 39.745,205.072 C43.3357111,221.654125 49.9822932,237.422802 59.345,251.572 C60.815157,253.777179 60.6643448,256.685699 58.974,258.727 L37.226,285 L67.112,314.887 L93.376,293.138 C95.3915962,291.468539 98.2567637,291.298167 100.456,292.717 C114.669123,302.023189 130.449049,308.680457 147.033,312.367 C149.584738,312.918376 151.487096,315.056456 151.738,317.655 L155.024,351.748 L197.449,351.748 L200.735,317.655 C200.985277,315.05792 202.885226,312.920276 205.435,312.367 C208.545,311.695 211.656,310.891 214.744,309.992 C210.20561,301.113583 206.779742,291.709238 204.544,281.992 C195.309311,284.4507 185.793395,285.694522 176.237,285.692 Z" id="Path" fill="#2062AF"></path>
            <path d="M269.647,146.781 C253.687562,95.5960896 199.493184,66.8028513 148.144508,82.2272523 C96.7958315,97.6516533 67.4385867,151.542593 82.326271,203.049443 C97.2139553,254.556292 150.795587,284.474346 202.455,270.125 C199.189252,243.887156 204.655859,217.30409 218.01,194.484 C230.002352,173.727096 248.006759,157.094367 269.647,146.781 Z M167.882,207.174 C165.551027,209.44977 161.829973,209.44977 159.499,207.174 L128.789,177.192 C126.443549,174.872455 126.410462,171.094547 128.714927,168.734278 C131.019391,166.374009 134.79701,166.31671 137.172,168.606 L163.69,194.5 L214.826,144.575 C216.356658,143.061249 218.580974,142.48354 220.654801,143.061119 C222.728627,143.638698 224.334085,145.283033 224.861887,147.370083 C225.38969,149.457134 224.758935,151.666993 223.209,153.161 L167.882,207.174 Z" id="Shape" fill="#FFFFFF"></path>
        </g>
    </g>
</svg>